<?xml version="1.0" encoding="UTF-8" standalone="no"?>
<svg
   width="28.915321"
   height="28.915321"
   viewBox="0 0 28.915321 28.915321"
   fill="none"
   version="1.1"
   id="svg155"
   sodipodi:docname="logo_auto_awesome_black_24dp 1.svg"
   xmlns:inkscape="http://www.inkscape.org/namespaces/inkscape"
   xmlns:sodipodi="http://sodipodi.sourceforge.net/DTD/sodipodi-0.dtd"
   xmlns="http://www.w3.org/2000/svg"
   xmlns:svg="http://www.w3.org/2000/svg">
  <sodipodi:namedview
     id="namedview157"
     pagecolor="#ffffff"
     bordercolor="#666666"
     borderopacity="1.0"
     inkscape:showpageshadow="2"
     inkscape:pageopacity="0.0"
     inkscape:pagecheckerboard="0"
     inkscape:deskcolor="#d1d1d1"
     showgrid="false" />
  <circle
     style="fill:#ffffff;stroke:#ffffff;stroke-width:6.66116;stroke-opacity:1"
     id="path486"
     cx="14.457662"
     cy="14.457662"
     r="11.127082"
     inkscape:export-filename="logo_auto_awesome_black_24dp 1.svg"
     inkscape:export-xdpi="98.3"
     inkscape:export-ydpi="98.3" />
  <g
     clip-path="url(#clip0_1_231)"
     id="g148"
     transform="translate(1.1475098,2.3757763)">
    <path
       d="M 19,9 20.25,6.25 23,5 20.25,3.75 19,1 17.75,3.75 15,5 17.75,6.25 Z"
       fill="#464646"
       id="path142" />
    <path
       d="M 19,15 17.75,17.75 15,19 17.75,20.25 19,23 20.25,20.25 23,19 20.25,17.75 Z"
       fill="#464646"
       id="path144" />
    <path
       d="M 11.5,9.5 9,4 6.5,9.5 1,12 6.5,14.5 9,20 11.5,14.5 17,12 Z M 9.99,12.99 9,15.17 8.01,12.99 5.83,12 8.01,11.01 9,8.83 9.99,11.01 12.17,12 Z"
       fill="#464646"
       id="path146" />
  </g>
  <defs
     id="defs153">
    <clipPath
       id="clip0_1_231">
      <rect
         width="24"
         height="24"
         fill="#ffffff"
         id="rect150"
         x="0"
         y="0" />
    </clipPath>
  </defs>
</svg>
